<svg xmlns="http://www.w3.org/2000/svg" viewBox="0 0 110 95">
  <defs>
    <linearGradient id="g" x1="0%" y1="0%" x2="100%" y2="100%">
      <stop offset="0%" stop-color="#5DCAF0"/>
      <stop offset="100%" stop-color="#1E84CC"/>
    </linearGradient>
  </defs>
  <!-- Cloud body with two bumps -->
  <path d="
    M 18,84
    C 6,84 1,75 1,65
    C 1,55 8,47 18,46
    C 16,32 26,20 40,19
    C 49,18 57,23 61,31
    C 67,18 79,10 94,11
    C 108,12 116,25 114,39
    C 114,41 113,43 112,46
    C 116,54 115,66 112,75
    C 108,85 98,90 86,90
    L 18,90
    Z
  " fill="url(#g)"/>
  <!-- Chevron > (rounded strokes) -->
  <polyline points="34,40 56,55 34,70"
    fill="none" stroke="white" stroke-width="9"
    stroke-linecap="round" stroke-linejoin="round"/>
  <!-- Dash - -->
  <rect x="60" y="62" width="28" height="9" rx="4.5" fill="white"/>
</svg>